# xmcd CD database file
#
# Track frame offsets:
#	150
#	15412
#	28012
#	41512
#	58691
#	71718
#	85493
#	102406
#	121230
#	140135
#	157799
#	182474
#	196311
#	206061
#	219523
#	230361
#	241275
#
# Disc length: 3414 seconds
#
# Revision: 0
# Processed by: cddbd v1.5.2PL0 Copyright (c) Steve Scherf et al.
# Submitted via: CDex 1.70beta2
#
DISCID=ea0d5411
DTITLE=Paul Urbanek - Standards Vol. 1
DYEAR=2018
DGENRE=Jazz
TTITLE0=You Don't Know What Love Is
TTITLE1=Caravan
TTITLE2=Body and Soul
TTITLE3=Stella By Starlight
TTITLE4=Night and Day
TTITLE5=Eleanor Rigby
TTITLE6=What Is the Thing Called Love
TTITLE7='Round Midnight
TTITLE8=Wild Flower
TTITLE9=Everything Happens To Me
TTITLE10=When Sunny Gets Blue
TTITLE11=Lush Life
TTITLE12=Polkadots and Moonbeams
TTITLE13=Emily
TTITLE14=When I Fall In Love
TTITLE15=On Green Dolphin Street
TTITLE16=Moonglow
EXTD=YEAR: 2018
EXTT0=
EXTT1=
EXTT2=
EXTT3=
EXTT4=
EXTT5=
EXTT6=
EXTT7=
EXTT8=
EXTT9=
EXTT10=
EXTT11=
EXTT12=
EXTT13=
EXTT14=
EXTT15=
EXTT16=
PLAYORDER=
